<svg width="1920" height="1358" viewBox="0 0 1920 1358" fill="none" xmlns="http://www.w3.org/2000/svg">
<g clip-path="url(#clip0_11_406)">
<path d="M957.45 39.3912L934.95 78.9357L890.1 79.3955L845.25 79.8553L822.75 119.553L800.25 159.404L756.15 159.711L712.2 160.17L689.7 199.562L667.2 239.106L639.15 238.953C623.85 238.8 604.65 238.34 596.55 237.727L581.85 236.807L560.4 198.489L538.95 160.17L494.1 159.711L449.25 159.251L427.05 119.4L404.7 79.702H358.8H312.75L290.25 119.553L267.75 159.251L222.9 159.711L177.9 160.17L154.95 200.481L132 240.792L154.95 281.716L177.9 322.64L222.75 323.1L267.75 323.56L285.75 355.9C295.65 373.68 305.4 391.306 307.35 394.832L310.95 401.422L290.25 437.901C278.85 457.98 268.65 475.453 267.45 476.679C265.65 478.672 259.2 478.825 223.05 478.365L180.75 477.906L158.1 517.603L135.6 557.148L90.75 557.914L45.9 558.681L22.95 598.532C10.35 620.45 0.299961 639.149 0.449961 640.069C0.599961 640.988 10.8 659.841 23.25 681.912L45.75 721.917H90.3H134.7L155.85 759.622C167.55 780.467 177 797.94 177 798.553C177 799.319 167.4 816.639 155.85 837.025C144.15 857.41 134.25 875.19 133.95 876.569C133.65 877.949 143.4 896.954 155.7 918.872L178.2 958.723L222.9 959.49L267.75 960.256L289.65 999.188L311.55 1038.27L298.8 1060.5C291.9 1072.76 281.85 1090.54 276.45 1100.04L266.7 1117.05L289.65 1157.83L312.6 1198.6H357.15H401.55L423.9 1238.45L446.1 1278.3H492.75H539.25L560.25 1241.21C571.8 1220.82 582.3 1202.89 583.5 1201.2C585.75 1198.44 587.55 1198.44 627.75 1199.67L669.6 1200.9L691.35 1239.67L712.95 1278.3H757.5H802.05L824.4 1318.15L846.6 1358H892.65H938.7L961.5 1318.15L984.3 1278.3H1028.7H1073.25L1095.75 1238.45L1118.25 1198.75L1160.4 1198.6H1202.55L1224.9 1238.45L1247.1 1278.3H1291.65H1336.35L1358.55 1318.15L1380.75 1358L1427.1 1357.69L1473.6 1357.23L1496.1 1317.69L1518.6 1278.3H1563.15H1607.55L1630.2 1238.45C1642.8 1216.53 1653 1197.68 1652.85 1196.76C1652.85 1195.68 1642.8 1177.14 1630.65 1155.68L1608.6 1116.59L1591.35 1115.68C1581.9 1115.06 1561.65 1114.6 1546.35 1114.45L1518.45 1114.3L1496.4 1074.9C1480.2 1046.09 1474.65 1034.9 1475.55 1032.91C1476.15 1031.53 1485.9 1014.51 1497 994.896L1517.25 959.49H1561.8H1606.2L1629 919.639L1651.8 879.788L1696.05 879.481L1740.45 879.021L1762.95 839.324L1785.6 799.626L1829.7 800.239L1873.95 800.852L1896.3 761.768C1908.6 740.309 1919.1 721.917 1919.4 720.997C1919.85 719.924 1909.95 700.765 1897.35 678.387L1874.55 637.616H1830.15H1785.75L1763.25 597.765L1740.75 557.914H1694.25L1647.75 558.068L1625.25 597.765L1602.75 637.616H1577.85C1564.2 637.616 1544.85 637.156 1534.8 636.543L1516.65 635.624L1494.45 596.079L1472.25 556.382H1427.7H1383.3L1362 518.523L1340.85 480.511L1343.55 475.76C1345.05 473.154 1354.65 456.141 1365 437.901L1383.75 404.794L1430.25 404.641H1476.75L1499.7 364.024L1522.65 323.56L1500 283.095L1477.2 242.478L1431.3 241.405C1389.6 240.332 1385.25 240.486 1383.6 242.785C1382.7 244.164 1372.5 261.944 1361.1 282.023L1340.25 318.808L1295.4 318.502L1250.55 318.042L1229.1 279.724C1217.25 258.572 1207.5 241.099 1207.5 240.639C1207.5 240.179 1217.55 222.246 1229.7 200.788L1252.05 161.856L1229.25 121.239L1206.45 80.4684L1161.6 80.0085L1116.75 79.702L1094.55 39.8511L1072.35 0H1026.15H979.95L957.45 39.3912ZM1090.35 42.3033C1101.9 62.9952 1111.5 80.7749 1111.5 81.5414C1111.5 83.0741 1072.95 151.587 1069.05 156.798C1067.4 159.098 1063.35 159.251 1024.65 158.178L981.9 157.105L960.6 119.246L939.45 81.3881L961.2 42.9165L982.95 4.59827H1026H1069.05L1090.35 42.3033ZM387 85.833H402.75L419.55 116.181C428.85 132.734 438.45 149.901 440.85 154.04L445.2 161.703L423.15 200.021L401.25 238.34L359.1 238.8C320.4 239.106 316.8 238.953 314.7 236.5C310.2 231.136 272.85 162.47 273.3 160.324C273.6 159.251 283.2 141.624 294.75 121.086L315.75 83.9937L343.5 84.9133C358.8 85.3732 378.3 85.833 387 85.833ZM956.55 123.078L978 161.243L956.4 198.949L934.95 236.807H891.9H848.85L827.1 198.335L805.5 160.017L826.95 122.159L848.25 84.4535L891.75 84.76L935.25 85.0667L956.55 123.078ZM1224.15 122.159C1235.85 143.157 1245.45 160.784 1245.45 161.703C1245.45 162.47 1235.7 180.249 1223.85 201.094L1202.4 238.953L1159.5 238.033C1122.9 237.267 1116.45 236.807 1114.8 234.814C1113.75 233.435 1104.15 216.575 1093.35 197.263C1075.8 166.148 1073.85 161.856 1075.2 158.638C1077.15 154.193 1114.35 88.8984 1116.45 86.1395C1117.5 84.76 1128.15 84.3003 1160.25 84.3003H1202.7L1224.15 122.159ZM289.05 202.321C300.75 223.012 310.05 240.792 309.6 242.018C309.15 243.245 299.7 260.718 288.3 280.643L267.75 317.122L224.25 317.275H180.75L159.15 278.957L137.7 240.639L149.25 220.407C155.7 209.218 165.6 191.898 171.3 181.935L181.65 164.002L224.7 164.309L267.75 164.769L289.05 202.321ZM556.95 202.321C575.1 234.814 577.5 239.872 576.15 242.785C575.1 244.624 565.05 262.25 553.8 282.023L533.1 318.042L491.55 318.348L450 318.655L446.4 312.984C441.15 304.707 406.5 242.478 406.5 241.252C406.5 240.486 415.2 225.005 442.2 177.95L450.45 163.542L493.2 164.309L536.1 165.075L556.95 202.321ZM823.05 203.24L844.65 241.712L823.2 279.417L801.75 317.275L758.25 316.816L714.9 316.509L693.45 278.344L672.15 240.026L674.85 235.428C677.55 230.983 694.35 201.554 709.35 175.038L715.65 164.002L758.55 164.309L801.45 164.769L823.05 203.24ZM1089.75 201.708C1101.3 222.399 1110.75 240.179 1110.75 241.405C1110.75 242.478 1101.3 260.104 1089.75 280.337L1068.75 317.275H1025.7H982.8L961.5 279.417C949.05 257.192 940.65 240.332 940.95 238.8C941.4 237.42 951 219.947 962.25 200.021L982.8 164.002H1025.85H1068.75L1089.75 201.708ZM421.5 279.877C432.6 299.802 442.35 317.429 443.1 318.961C444.15 321.107 439.65 330.15 423 359.426L401.55 396.977H357.9H314.1L293.4 359.732C281.85 339.347 272.55 321.874 272.55 321.107C272.55 320.188 282.15 302.408 294.15 281.563L315.75 243.704H358.5H401.25L421.5 279.877ZM689.55 282.023L710.85 320.188L689.1 358.659L667.2 396.977H624.9H582.75L561.3 358.659L539.85 320.494L553.65 296.277C561.15 282.942 571.05 265.622 575.55 257.805L583.65 243.704H625.95L668.25 243.858L689.55 282.023ZM956.7 282.942L978.15 321.567L956.7 359.272L935.25 396.977L891.9 396.518L848.55 396.211L827.7 358.966C816.3 338.427 807 320.801 807.3 319.574C807.6 318.502 817.2 301.028 828.75 280.643L849.75 243.704L892.5 244.011L935.1 244.471L956.7 282.942ZM1190.55 245.084L1204.5 246.003L1225.5 283.402L1246.5 320.647L1224.45 359.579L1202.25 398.51L1170 398.357C1152.3 398.204 1132.8 397.744 1126.95 397.131L1116 396.211L1094.85 358.659C1076.7 326.318 1074 320.801 1075.35 317.735C1077.15 313.597 1114.35 248.302 1116.45 245.544C1117.95 243.551 1164.15 243.091 1190.55 245.084ZM1495.5 285.241L1516.95 323.56L1514.1 328.618C1512.6 331.377 1502.85 348.543 1492.5 366.783L1473.75 399.89L1430.25 400.043H1386.6L1365.15 361.571C1348.65 332.143 1344 322.487 1344.9 320.494C1345.65 318.961 1355.4 301.795 1366.5 282.176L1386.75 246.77H1430.4H1474.2L1495.5 285.241ZM497.25 324.939H535.2L556.35 362.951C567.9 383.796 577.5 401.576 577.5 402.189C577.5 402.955 567.9 420.428 556.35 440.967L535.2 478.212L492.3 477.906L449.4 477.446L427.8 438.821L406.2 400.196L420 375.979C453.6 317.429 449.85 322.947 454.8 324.019C457.35 324.479 476.4 324.939 497.25 324.939ZM823.2 361.878L844.65 400.349L835.5 416.75C830.4 425.64 820.65 442.806 813.9 454.761L801.75 476.526L759 476.679H716.25L694.95 438.361C683.1 417.363 673.5 399.277 673.5 398.357C673.5 397.591 678.3 388.547 684 378.431C689.85 368.469 699.3 351.915 705 341.799L715.65 323.406H758.7H801.75L823.2 361.878ZM1090.5 361.725C1107.15 391.613 1111.65 400.809 1110.6 402.955C1109.85 404.488 1100.1 421.654 1089 441.273L1068.75 476.679H1026H983.1L961.65 438.361C949.95 417.209 940.5 399.43 940.8 398.663C941.1 397.897 950.7 380.73 962.25 360.345L983.25 323.406H1026.15H1069.2L1090.5 361.725ZM1357.05 359.426C1368 378.738 1377.6 396.211 1378.65 397.897C1380.15 400.809 1377.75 405.714 1358.85 438.974L1337.25 476.679H1293.6H1249.8L1228.65 438.668L1207.5 400.503L1229.4 362.031L1251.45 323.406L1294.35 323.713L1337.25 324.173L1357.05 359.426ZM423 441.427C436.2 465.184 444 480.665 443.4 482.197C442.05 485.723 403.35 553.776 401.4 555.922C400.05 557.454 389.85 557.608 357.75 556.841L315.75 555.922L297.75 523.734C287.85 505.955 278.1 488.635 276.15 484.956L272.7 478.519L294.15 440.814L315.75 403.108H358.65H401.7L423 441.427ZM652.65 404.641H668.7L689.85 442.346C701.55 463.038 710.7 480.511 710.55 480.971C710.25 481.584 700.35 499.057 688.5 520.056L667.05 557.914L625.05 557.608L583.2 557.148L561.6 518.983C549.9 497.831 540.45 480.358 540.6 479.898C547.05 468.249 580.35 410.312 582.45 407.093L585.6 402.649L611.1 403.568C625.2 404.181 643.95 404.641 652.65 404.641ZM956.85 441.58C976.8 477.139 978.15 480.358 976.65 484.037C975.6 486.182 966 503.349 955.35 522.202L935.7 556.382H892.5H849.3L828 518.063C816.3 497.065 807 479.285 807.3 478.519C807.45 477.752 817.2 460.432 828.75 440.2L849.75 403.108H892.5H935.25L956.85 441.58ZM1222.5 438.668C1233.6 458.287 1243.2 475.453 1243.95 476.833C1245 478.519 1239.9 488.635 1223.55 517.45L1201.8 555.615L1159.35 556.075L1116.75 556.382L1095.75 518.676C1084.2 497.984 1074.75 480.205 1074.75 479.285C1074.75 478.212 1084.2 460.739 1095.75 440.354L1116.75 403.262L1159.65 403.108H1202.55L1222.5 438.668ZM554.25 516.837C564.75 535.69 574.5 553.163 576.15 555.615L578.85 560.213L557.4 597.765L536.1 635.317H492.75H449.4L427.95 597.152L406.5 558.987L426.9 522.815C438.3 502.889 448.2 485.723 448.95 484.65C450 483.27 460.65 482.81 492.75 482.81H535.2L554.25 516.837ZM823.5 521.129L844.95 559.447L835.5 576C830.4 585.044 820.65 602.21 813.9 614.165L801.75 635.93H759H716.25L695.4 598.532C684 577.993 674.55 560.673 674.4 560.213C674.4 559.754 684 542.127 696 520.975L717.75 482.81H759.9H802.2L823.5 521.129ZM1089.45 519.596C1100.7 539.828 1110.15 556.841 1110.3 557.608C1110.6 558.374 1101 576.307 1089 597.459L1067.25 635.93L1025.25 636.084H983.25L961.65 597.919L940.2 559.6L954.15 535.383C961.65 522.048 971.55 504.728 976.05 496.911L984.15 482.81H1026.45H1068.9L1089.45 519.596ZM1357.5 520.516C1369.2 541.207 1378.35 558.987 1378.05 559.907C1377.6 560.98 1367.85 578.3 1356.3 598.532L1335.3 635.317H1292.25H1249.2L1228.35 598.532C1216.8 578.3 1207.65 560.673 1207.8 559.294C1208.1 557.914 1217.7 540.135 1229.25 519.902L1250.25 482.81H1293.15H1336.2L1357.5 520.516ZM285.45 514.231C294.45 530.172 304.05 547.492 306.75 552.55L311.85 561.746L290.4 599.298L269.1 636.85L226.2 637.31L183.3 637.616L164.85 605.122C154.8 587.189 145.05 569.716 143.1 566.344L139.65 560.213L157.95 528.026C168 510.246 177.75 493.233 179.55 490.014L183 484.343L226.05 484.65L269.1 485.109L285.45 514.231ZM1202.4 562.972C1204.5 565.731 1243.95 637.31 1243.95 638.383C1243.95 640.222 1203.45 711.034 1200.75 714.1C1199.1 715.786 1191.45 715.939 1157.4 715.019L1116.15 713.793L1095 676.394L1074 638.996L1092.9 605.735C1103.25 587.496 1113.45 569.87 1115.55 566.498L1119.3 560.52L1160.85 561.746C1183.65 562.359 1202.4 562.972 1202.4 562.972ZM1470.3 563.892C1473 566.498 1512.15 638.076 1511.7 639.762C1511.4 640.835 1501.8 658.308 1490.25 678.693L1469.25 715.786L1425.9 715.326L1382.55 715.019L1361.1 676.701L1339.65 638.383L1342.5 633.784C1344 631.332 1353.45 614.625 1363.5 596.999C1373.55 579.219 1382.4 564.045 1383.15 563.126C1384.5 561.44 1468.35 562.053 1470.3 563.892ZM120.3 563.432L136.05 564.505L156.75 601.444C168.15 621.829 177.45 638.996 177.45 639.915C177.45 640.682 167.7 658.615 155.85 679.46L134.25 717.472L91.8 717.165L49.35 717.012L45.75 711.341C43.95 708.275 34.05 691.109 24 673.022C7.94996 644.36 5.84996 639.762 7.34996 636.697C9.14996 632.405 46.35 567.111 48.45 564.352C50.1 562.359 92.25 561.746 120.3 563.432ZM671.1 568.184C673.2 571.402 683.25 589.029 693.45 607.421L712.05 640.835L690.3 679L668.4 717.318H655.65C648.6 717.318 629.1 716.858 612.6 716.245L582.3 715.326L561.15 677.314L539.85 639.149L553.65 615.085C561.15 601.75 571.05 584.43 575.55 576.614L583.65 562.512H625.5H667.5L671.1 568.184ZM956.85 600.218C968.55 621.063 978 638.689 978 639.456C978 640.222 968.4 657.848 956.7 678.387L935.4 715.786L892.5 715.479L849.75 715.019L829.95 679.766C819 660.301 809.4 642.981 808.35 641.295C806.85 638.383 809.25 633.478 828.15 600.218L849.75 562.512H892.8H935.7L956.85 600.218ZM1759.35 600.831L1780.65 639.149L1759.05 677.161L1737.45 715.019L1694.1 715.326L1650.75 715.786L1629.3 677.467C1610.25 643.134 1608.15 638.689 1609.65 635.624C1613.1 629.186 1648.95 566.344 1650.45 564.352C1651.5 562.972 1662.3 562.512 1694.85 562.512H1737.9L1759.35 600.831ZM423.45 601.291C434.7 621.676 444 639.149 444 639.915C444 640.835 434.25 658.308 422.4 679L400.95 716.552L358.8 717.012L316.8 717.318L295.65 679.613C283.95 658.921 274.5 641.142 274.5 640.222C274.5 639.302 284.1 621.829 295.65 601.291L316.95 564.045H359.85L402.75 564.198L423.45 601.291ZM1356.9 679.92L1378.65 718.544L1356.45 757.169L1334.4 795.947L1324.65 794.875C1319.25 794.415 1300.05 793.955 1282.2 793.955H1249.8L1228.35 755.943C1216.65 735.098 1207.05 717.318 1207.05 716.552C1207.05 715.632 1213.8 703.217 1222.05 688.963C1230.15 674.555 1239.75 657.848 1243.35 651.717L1249.65 640.682L1292.4 640.988L1335.15 641.448L1356.9 679.92ZM250.65 643.287L269.55 644.207L290.25 680.993C301.65 701.225 310.95 718.544 310.95 719.464C310.95 721.457 270.6 792.269 268.05 795.028C266.7 796.407 255.75 796.56 223.95 795.947L181.5 795.028L160.5 757.629C148.8 736.937 139.5 719.617 139.8 719.004C140.1 718.391 150 700.918 161.85 680.073L183.45 642.214H207.6C220.95 642.214 240.3 642.674 250.65 643.287ZM556.05 679C567.3 698.772 576.75 716.245 577.05 717.625C577.5 719.158 569.1 735.558 556.35 757.936L534.9 795.488H492L449.25 795.334L428.4 757.936C415.35 734.332 408 719.464 408.6 717.931C409.35 715.786 444.3 653.863 449.4 645.586L451.65 642.214L493.65 642.521L535.65 642.981L556.05 679ZM823.35 680.533L844.8 719.004L822.45 758.089L800.25 797.327L789.15 796.407C783 795.947 764.1 795.488 747.15 795.488H716.25L695.25 757.782C683.7 736.937 674.4 719.311 674.7 718.391C675 717.625 684.75 699.998 696.45 679.613L717.75 642.214H759.75H801.9L823.35 680.533ZM1087.2 675.935C1097.4 694.021 1107.15 711.494 1108.8 714.559L1111.95 720.077L1090.5 757.782L1069.2 795.488H1026.15H983.1L961.65 757.169C949.95 736.018 940.5 718.238 940.8 717.472C941.1 716.705 950.7 699.539 962.25 679.153L983.25 642.214L1025.85 642.521L1068.6 642.981L1087.2 675.935ZM1624.65 679.766C1636.05 699.998 1645.5 717.472 1645.5 718.544C1645.5 719.617 1635.9 737.244 1624.2 757.936L1602.75 795.488H1560H1517.25L1497 759.315C1485.9 739.39 1476.15 721.763 1475.4 720.23C1474.35 718.085 1478.85 709.042 1495.5 679.766L1516.95 642.214L1560.45 642.521L1603.8 642.981L1624.65 679.766ZM1892.7 680.073C1904.4 701.071 1914 718.698 1914 719.311C1914 720.077 1904.4 737.397 1892.7 758.089L1871.25 795.488H1827.75L1784.25 795.334L1762.95 757.169L1741.8 718.851L1763.55 680.533L1785.45 642.214H1828.5H1871.4L1892.7 680.073ZM956.85 759.468C968.55 780.007 978 797.48 978 798.093C978 798.706 968.25 816.179 956.55 836.871L935.1 874.423L892.95 874.883L850.8 875.19L829.65 837.638C817.95 817.099 808.5 799.473 808.5 798.553C808.5 796.867 818.1 779.547 841.5 738.777L851.7 721.15L893.7 721.61L935.85 722.07L956.85 759.468ZM423.3 760.848L445.05 799.626L423.6 837.025L402.3 874.423L359.1 874.73L315.75 875.19L294.45 837.025L273 798.86L295.05 760.388L316.95 721.917H359.25H401.55L423.3 760.848ZM686.1 752.571C695.4 768.971 705 786.291 707.55 790.889L712.35 799.319L690.9 836.871L669.6 874.423H626.25H582.9L561.45 836.258C542.85 802.998 540.3 797.787 541.8 794.875C545.1 788.437 580.95 725.748 582.45 723.756C583.5 722.376 593.55 721.917 626.7 722.223L669.45 722.683L686.1 752.571ZM1223.55 760.235L1244.85 798.553L1222.95 836.871L1201.2 875.19H1158.9H1116.75L1095.3 836.718L1073.85 798.247L1085.4 778.168C1091.7 766.979 1101.6 749.812 1107.3 739.849L1117.65 721.917H1159.95L1202.25 722.07L1223.55 760.235ZM1491 759.775C1502.55 780.62 1511.85 798.4 1511.7 799.319C1511.4 800.392 1501.8 817.865 1490.25 838.098L1469.25 875.19H1426.35H1383.45L1361.7 836.411L1340.1 797.633L1357.05 767.745C1366.5 751.345 1376.1 734.332 1378.5 729.887L1383 721.917H1426.35H1469.7L1491 759.775ZM1759.05 760.848L1780.35 799.013L1758.9 836.718L1737.3 874.423L1694.1 874.73L1650.75 875.19L1629.75 837.484C1618.2 816.793 1608.75 799.166 1608.75 798.093C1608.75 797.02 1618.2 779.547 1629.75 759.162L1650.75 721.917L1694.1 722.376L1737.6 722.683L1759.05 760.848ZM1069.8 802.998C1071.75 804.837 1111.5 876.722 1111.5 878.408C1111.5 879.328 1101.9 896.954 1090.2 917.493L1068.9 954.892H1026.6H984.3L962.25 915.654L940.35 876.569L960.9 840.243C972.3 820.318 982.05 803.151 982.65 802.232C984 800.546 1067.85 801.159 1069.8 802.998ZM1355.55 836.105C1366.5 855.417 1376.1 872.737 1377 874.423C1378.35 877.182 1375.5 883.007 1356.6 916.42L1334.55 955.198L1292.55 954.585L1250.7 954.125L1229.25 915.807C1210.2 882.087 1207.95 877.335 1209.45 874.423C1210.5 872.584 1220.4 855.111 1231.5 835.492L1251.75 799.779L1293.75 800.392L1335.75 800.852L1355.55 836.105ZM289.8 839.63C301.2 860.169 310.5 877.795 310.2 878.868C309.9 879.941 300.3 897.568 288.75 917.8L267.75 954.892L224.4 954.432L181.05 954.125L159.6 915.807C140.4 881.627 138.3 877.182 140.1 874.423C141.15 872.737 150.9 855.724 161.85 836.411L181.8 801.619L225.3 801.925L268.95 802.385L289.8 839.63ZM554.25 835.645C564.75 854.498 574.5 871.971 576 874.423L578.85 879.021L557.4 916.573L535.95 954.125L492.6 954.432L449.25 954.892L427.95 916.573L406.5 878.408L428.4 840.09L450.3 801.619H492.75H535.2L554.25 835.645ZM791.25 802.538L803.25 803.611L824.7 841.929L846 880.248L824.55 917.953L803.1 955.658L773.1 956.118C756.75 956.271 737.25 955.965 729.75 955.351L716.4 954.125L695.1 916.267L673.95 878.408L695.85 840.09L717.6 801.619H748.5C765.45 801.619 784.65 802.078 791.25 802.538ZM1621.65 834.112C1631.7 852.045 1641.45 869.519 1643.25 872.891L1646.7 879.021L1624.95 916.88L1603.35 954.892H1560.15H1517.1L1495.65 916.573C1483.95 895.422 1474.5 877.642 1474.8 876.876C1475.1 876.109 1484.7 858.943 1496.25 838.557L1517.25 801.619H1560.3H1603.2L1621.65 834.112ZM1490.7 918.872C1509.3 951.826 1512 957.497 1510.65 960.563C1508.1 966.387 1471.2 1030.61 1469.25 1032.91C1467.75 1034.59 1459.8 1034.75 1425.45 1033.83L1383.6 1032.6L1363.35 996.582C1352.4 976.81 1342.65 959.49 1342.05 957.957C1341 955.965 1346.1 946.002 1362.3 917.493L1383.75 879.788L1426.5 880.248L1469.25 880.554L1490.7 918.872ZM424.05 920.405C443.4 954.892 445.2 958.877 443.4 961.789C442.35 963.475 432.6 980.488 421.65 999.647L401.7 1034.59H358.5H315.3L294.15 996.888C282.45 976.043 273 958.57 273 957.804C273 957.037 282.6 939.411 294.45 918.872L315.75 881.321L359.1 881.78L402.6 882.087L424.05 920.405ZM691.2 919.792L712.65 958.264L691.05 995.969L669.45 1033.83L626.7 1034.29L583.8 1034.59L562.5 996.735C550.05 974.511 541.65 957.651 541.95 956.118C542.4 954.738 552 937.265 563.25 917.34L583.8 881.321H626.85L669.75 881.474L691.2 919.792ZM956.85 919.026C968.55 939.871 978 957.497 978 958.57C978 959.49 968.4 976.963 956.55 997.502L935.25 1034.75L893.25 1034.59C870.15 1034.59 850.8 1033.98 850.2 1033.37C849.75 1032.75 840 1015.89 828.75 995.816C816.45 973.898 808.65 958.417 809.1 956.884C810 954.892 844.95 892.816 849.9 884.693C852 881.321 852.15 881.321 893.85 881.321H935.7L956.85 919.026ZM1224.3 920.405L1246.2 959.49L1224.9 996.735L1203.6 1033.83H1160.25H1116.9L1095.45 995.662C1083.75 974.664 1074.3 957.037 1074.6 956.578C1075.35 955.198 1095.45 919.945 1107 899.713L1117.65 881.321H1159.95H1202.4L1224.3 920.405ZM557.7 1000.26L579.15 1038.89L557.7 1076.59L536.25 1114.3L492.9 1113.84L449.55 1113.53L428.1 1075.52L406.8 1037.35L410.85 1030.3C413.1 1026.32 422.85 1009.15 432.6 991.984L450.3 961.023L493.2 961.329L536.1 961.789L557.7 1000.26ZM824.7 999.341L846 1037.81L824.4 1075.67L802.8 1113.53L760.2 1113.99L717.45 1114.3L696.6 1077.2C685.2 1056.82 675.6 1039.19 675.3 1038.12C675 1036.89 684.3 1019.11 696.15 998.574L717.45 961.023H760.35H803.25L824.7 999.341ZM1091.25 998.881C1102.8 1019.73 1112.1 1037.35 1111.8 1038.27C1111.5 1039.19 1101.75 1056.67 1090.05 1077.05L1068.9 1114.3H1026.6H984.3L963 1076.44C951.45 1055.59 942.3 1037.66 942.75 1036.43C943.5 1034.44 978.75 972.058 983.4 964.395C985.5 961.023 985.65 961.023 1027.95 961.023L1070.25 961.176L1091.25 998.881ZM1357.95 1000.11L1379.7 1039.04L1358.4 1076.28L1337.25 1113.53H1293.9H1250.7L1229.85 1076.74C1218.45 1056.51 1209.15 1039.04 1209 1037.97C1209 1036.74 1218.6 1018.96 1230.3 998.421L1251.6 961.023H1293.9H1336.05L1357.95 1000.11ZM424.05 1079.04L445.5 1117.36L423.6 1155.68L401.7 1194H358.65H315.6L294.15 1155.53C277.65 1126.1 273 1116.44 273.9 1114.45C274.65 1112.92 284.4 1095.75 295.5 1076.13L315.75 1040.72H359.25H402.75L424.05 1079.04ZM690.9 1079.2L712.05 1116.75L690.15 1155.37L668.25 1194L625.65 1193.54L583.05 1193.23L562.2 1155.99C550.8 1135.45 541.5 1117.82 541.8 1116.75C542.1 1115.68 551.7 1098.2 563.25 1077.82L584.25 1040.72L627 1041.18L669.75 1041.49L690.9 1079.2ZM958.05 1079.66L979.35 1117.82L975.75 1124.11C973.8 1127.63 964.05 1144.49 954.3 1161.81L936.3 1193.23H893.1H849.9L828.6 1155.22L807.3 1117.21L829.2 1078.89L850.95 1040.72L893.85 1041.03L936.6 1041.49L958.05 1079.66ZM1224.75 1078.43C1236.3 1099.27 1245.6 1116.9 1245.3 1117.82C1245 1118.59 1235.25 1136.06 1223.7 1156.6L1202.4 1194H1160.1H1117.8L1097.85 1158.29C1086.9 1138.82 1077 1121.35 1075.95 1119.66C1074.3 1116.75 1075.95 1113.07 1093.65 1082.11C1104.45 1063.1 1114.2 1046.09 1115.4 1044.1C1117.5 1040.72 1117.65 1040.72 1160.7 1040.72H1203.75L1224.75 1078.43ZM1492.65 1078.28C1504.05 1098.51 1513.35 1115.83 1513.35 1116.59C1513.5 1117.51 1503.9 1135.14 1492.05 1155.68L1470.75 1193.23H1427.4H1384.05L1363.35 1156.45C1351.95 1136.21 1342.65 1118.74 1342.65 1117.67C1342.5 1116.59 1352.1 1098.82 1363.8 1078.12L1385.1 1040.72L1428.45 1041.03L1471.95 1041.49L1492.65 1078.28ZM1358.1 1157.67C1369.65 1178.06 1378.95 1195.53 1378.95 1196.3C1378.95 1197.22 1369.35 1215 1357.5 1235.84L1335.9 1273.7H1293.15H1250.25L1228.8 1235.38C1209.6 1200.9 1207.5 1196.76 1209.15 1193.69C1213.8 1184.65 1248.6 1123.95 1250.4 1121.96C1252.05 1119.97 1258.5 1119.66 1294.8 1120.12L1337.25 1120.58L1358.1 1157.67ZM557.85 1158.9L579.45 1197.37L576.6 1202.43C575.1 1205.03 565.35 1222.2 555 1240.44L536.25 1273.55H492.75L449.25 1273.7L427.8 1235.38L406.35 1197.22L420.15 1173C427.65 1159.66 437.55 1142.34 442.05 1134.53L450.15 1120.43H493.2H536.25L557.85 1158.9ZM824.25 1158.13C835.8 1178.82 845.25 1196.14 845.1 1196.6C845.1 1197.06 835.35 1214.54 823.35 1235.53L801.75 1273.7L759.6 1273.55C721.8 1273.55 717.15 1273.24 715.2 1270.94C712.95 1268.18 675.3 1201.35 674.7 1198.75C674.4 1197.98 684 1180.05 696 1158.9L717.75 1120.43H760.5H803.25L824.25 1158.13ZM1091.25 1158.44C1102.8 1179.13 1112.25 1196.91 1112.25 1197.98C1112.25 1198.9 1102.8 1216.38 1091.25 1236.76L1070.25 1273.7L1026.9 1273.39L983.55 1272.93L962.25 1234.77L940.8 1196.6L950.1 1180.36C955.2 1171.47 965.1 1154.3 971.85 1142.19L984.3 1120.43L1027.2 1120.58H1070.25L1091.25 1158.44ZM1626.9 1159.2L1648.05 1197.22L1626.3 1235.38L1604.55 1273.7H1561.35H1518.3L1497.15 1235.99C1485.45 1215.15 1476 1197.52 1476 1196.76C1476 1195.99 1485.6 1178.36 1497.3 1157.83L1518.6 1120.43L1562.1 1120.73L1605.6 1121.19L1626.9 1159.2ZM918 1199.52L936.9 1200.59L958.2 1238.45L979.5 1276.46L957.6 1314.93L935.7 1353.4L910.05 1353.25C895.8 1353.1 876.15 1352.64 866.4 1352.02L848.4 1351.1L827.7 1314.32C816.45 1294.09 807 1277.07 807 1276.31C807 1275.69 816.9 1257.91 828.9 1236.91L850.8 1198.6H874.95C888.3 1198.6 907.65 1199.06 918 1199.52ZM1446.75 1200.13H1470.9L1492.35 1238.45L1513.8 1276.77L1492.05 1314.78L1470.45 1352.64L1427.55 1353.1L1384.5 1353.4L1381.05 1347.73C1371.6 1332.56 1341 1276.46 1341.45 1275.54C1341.75 1274.93 1351.8 1257.3 1363.65 1236.3L1385.25 1198.14L1404 1199.21C1414.35 1199.67 1433.55 1200.13 1446.75 1200.13Z" fill="#FDBB30"/>
</g>
<defs>
<clipPath id="clip0_11_406">
<rect width="1920" height="1358" fill="white"/>
</clipPath>
</defs>
</svg>
