<svg width="180" height="141" viewBox="0 0 180 141" fill="none" xmlns="http://www.w3.org/2000/svg">
<path d="M178.237 47.3828L154.171 88.884L104.497 89.8167L78.8897 49.2483L102.956 7.74722L152.63 6.81447L178.237 47.3828Z" fill="#FDBB30"/>
<path d="M101.013 91.2754L76.8367 132.713L27.1606 133.515L1.66023 92.8788L25.836 51.4413L75.5122 50.6396L101.013 91.2754Z" fill="#FDBB30"/>
<path d="M131.608 29C133.56 29 134.968 29.544 135.832 30.632C136.728 31.688 137.176 33.272 137.176 35.384V58.472C137.176 60.776 136.792 62.44 136.024 63.464C135.256 64.488 133.864 65 131.848 65H123.592C120.52 65 118.712 63.848 118.168 61.544C117.976 60.84 117.88 60.056 117.88 59.192V35.384C117.88 33.24 118.232 31.688 118.936 30.728C119.736 29.576 121.16 29 123.208 29H131.608ZM121.72 61.736H133.336V32.264H121.72V61.736Z" fill="#4B4022"/>
<path d="M30.3166 81.6419C30.1831 80.2586 29.1004 79.2618 27.8983 79.4154C26.6961 79.569 25.8299 80.8149 25.9634 82.1981L30.3166 81.6419ZM77.0365 82.1978C77.17 80.8146 76.3036 79.5688 75.1015 79.4154C73.8993 79.2619 72.8166 80.2589 72.6834 81.6422L77.0365 82.1978ZM22.3 79.4C21.0905 79.4 20.11 80.5283 20.11 81.92C20.11 83.3117 21.0905 84.44 22.3 84.44V79.4ZM80.7 84.44C81.9094 84.44 82.89 83.3117 82.89 81.92C82.89 80.5283 81.9094 79.4 80.7 79.4V84.44ZM29.1012 80.793C28.5603 82.0378 28.9988 83.5516 30.0806 84.174C31.1624 84.7964 32.4779 84.2918 33.0188 83.047L29.1012 80.793ZM38.8588 69.607C39.3997 68.3622 38.9612 66.8485 37.8794 66.226C36.7976 65.6036 35.4821 66.1082 34.9412 67.353L38.8588 69.607ZM69.9812 83.047C70.522 84.2918 71.8375 84.7964 72.9193 84.174C74.0012 83.5516 74.4398 82.0378 73.8987 80.793L69.9812 83.047ZM68.0587 67.353C67.5179 66.1082 66.2025 65.6036 65.1206 66.226C64.0388 66.8485 63.6002 68.3622 64.1412 69.607L68.0587 67.353ZM40.55 102.08C40.55 103.472 41.5305 104.6 42.74 104.6C43.9495 104.6 44.93 103.472 44.93 102.08H40.55ZM44.93 95.36C44.93 93.9683 43.9495 92.84 42.74 92.84C41.5305 92.84 40.55 93.9683 40.55 95.36H44.93ZM49.31 102.08C49.31 103.472 50.2905 104.6 51.5 104.6C52.7094 104.6 53.69 103.472 53.69 102.08H49.31ZM53.69 95.36C53.69 93.9683 52.7094 92.84 51.5 92.84C50.2905 92.84 49.31 93.9683 49.31 95.36H53.69ZM58.07 102.08C58.07 103.472 59.0505 104.6 60.26 104.6C61.4694 104.6 62.45 103.472 62.45 102.08H58.07ZM62.45 95.36C62.45 93.9683 61.4694 92.84 60.26 92.84C59.0505 92.84 58.07 93.9683 58.07 95.36H62.45ZM25.9634 82.1981L28.6293 109.821L32.9826 109.264L30.3166 81.6419L25.9634 82.1981ZM28.6293 109.821C29.0813 114.499 32.5168 118.038 36.6072 118.04L36.6088 113C34.7496 112.999 33.188 111.391 32.9826 109.264L28.6293 109.821ZM36.6072 118.04H66.392L66.3923 113H36.6088L36.6072 118.04ZM66.392 118.04C70.4838 118.041 73.9215 114.501 74.3735 109.821L70.0204 109.264C69.8148 111.391 68.2523 113 66.3923 113L66.392 118.04ZM74.3735 109.821L77.0365 82.1978L72.6834 81.6422L70.0204 109.264L74.3735 109.821ZM22.3 84.44H80.7V79.4H22.3V84.44ZM33.0188 83.047L38.8588 69.607L34.9412 67.353L29.1012 80.793L33.0188 83.047ZM73.8987 80.793L68.0587 67.353L64.1412 69.607L69.9812 83.047L73.8987 80.793ZM44.93 102.08V95.36H40.55V102.08H44.93ZM53.69 102.08V95.36H49.31V102.08H53.69ZM62.45 102.08V95.36H58.07V102.08H62.45Z" fill="#4B4022"/>
</svg>
