<svg width="258" height="250" viewBox="0 0 258 250" fill="none" xmlns="http://www.w3.org/2000/svg">
<path d="M256.223 125.634L191.671 232.586L63.9622 231.756L0.805106 123.976L65.3567 17.0242L193.065 17.8536L256.223 125.634Z" fill="#FDBB30"/>
<path d="M151.84 149.001C151.575 146.794 151.018 144.787 150.183 143.035C143.906 129.847 124.808 130.982 112.336 133.348C110.489 128.874 106.909 125.29 102.436 123.44L105.384 118.759C106.12 117.589 105.769 116.043 104.599 115.306C103.429 114.569 101.883 114.92 101.146 116.09L97.3263 122.156C96.7258 122.096 96.1166 122.065 95.5008 122.065C94.8846 122.065 94.2757 122.096 93.6752 122.156L89.8554 116.09C89.1183 114.92 87.573 114.569 86.4024 115.306C85.2324 116.043 84.8811 117.589 85.6178 118.759L88.5659 123.44C84.0929 125.29 80.5135 128.874 78.6656 133.347C66.1943 130.982 47.0954 129.848 40.8182 143.035C39.9839 144.788 39.4265 146.795 39.1619 149C38.9532 150.736 39.1015 153.185 39.54 155.241C39.6359 155.691 39.7324 156.141 39.8299 156.592C40.2741 158.646 41.1445 160.941 42.0469 162.437C43.1938 164.34 44.5261 165.941 46.0059 167.197C49.4603 170.127 53.4712 171.295 57.6754 171.295C62.452 171.295 67.4728 169.785 72.1993 167.64V177.628C72.1993 179.103 72.3433 180.545 72.6068 181.945C72.6121 181.976 72.6168 182.007 72.6235 182.038C74.5369 191.982 82.7893 199.694 92.9965 200.79L92.9969 207.496C92.9969 208.879 94.1181 210 95.5008 210C96.8835 210 98.0043 208.879 98.0043 207.496L98.004 200.79C108.208 199.694 116.458 191.988 118.375 182.049C118.385 182.004 118.392 181.959 118.399 181.914C118.659 180.524 118.801 179.093 118.801 177.629V167.64C123.528 169.785 128.549 171.295 133.326 171.295C137.529 171.295 141.542 170.126 144.996 167.197C146.476 165.941 147.808 164.34 148.955 162.437C149.858 160.94 150.728 158.645 151.172 156.592C151.269 156.141 151.366 155.691 151.462 155.241C151.9 153.186 152.049 150.736 151.84 149.001ZM95.5008 127.072C102.779 127.072 108.7 132.993 108.7 140.271C108.7 147.549 102.779 153.47 95.5008 153.47C88.2226 153.47 82.3017 147.549 82.3017 140.271C82.3017 132.993 88.2229 127.072 95.5008 127.072ZM49.2456 163.378C48.1805 162.475 47.2013 161.288 46.3353 159.851C45.7137 158.821 45.0511 157.045 44.7244 155.534C44.6283 155.088 44.5327 154.642 44.4376 154.196C44.1153 152.684 43.9903 150.793 44.134 149.597C44.334 147.932 44.7398 146.448 45.34 145.187C48.4758 138.599 56.6577 136.884 64.3257 136.884C65.9405 136.884 67.5332 136.961 69.0502 137.083C71.9792 137.32 74.8291 137.745 77.4095 138.227C77.334 138.898 77.2943 139.58 77.2943 140.271C77.2943 146.035 79.9892 151.177 84.1817 154.516C81.44 156.569 77.9713 158.953 74.1929 161.035C66.5296 165.258 55.9807 169.092 49.2456 163.378ZM113.794 177.628H113.794C113.794 178.092 113.771 178.551 113.737 179.006H96.4803C95.0976 179.006 93.9765 180.127 93.9765 181.51C93.9765 182.893 95.0973 184.014 96.4803 184.014H112.642C110.045 190.961 103.342 195.922 95.5008 195.922C87.6591 195.922 80.9561 190.961 78.3597 184.014H82.4593C83.842 184.014 84.9632 182.893 84.9632 181.51C84.9632 180.127 83.8424 179.006 82.4593 179.006H77.2649C77.2308 178.551 77.2078 178.092 77.2078 177.628V169.419H93.1425C94.5252 169.419 95.6464 168.298 95.6464 166.915C95.6464 165.532 94.5255 164.411 93.1425 164.411H78.3994C82.5475 161.985 86.2053 159.341 88.8996 157.233C90.9479 158.034 93.1732 158.478 95.5018 158.478C97.8303 158.478 100.056 158.033 102.104 157.233C104.798 159.341 108.455 161.985 112.603 164.411H105.662C104.279 164.411 103.158 165.532 103.158 166.915C103.158 168.298 104.279 169.419 105.662 169.419H113.794V177.628ZM146.564 154.197C146.469 154.642 146.373 155.088 146.277 155.533C145.95 157.044 145.288 158.82 144.666 159.852C143.8 161.288 142.821 162.474 141.756 163.378C135.021 169.093 124.472 165.258 116.809 161.035C113.03 158.953 109.561 156.569 106.82 154.516C111.012 151.177 113.707 146.035 113.707 140.271C113.707 139.579 113.668 138.896 113.592 138.224C116.146 137.748 118.968 137.328 121.871 137.09C130.625 136.371 141.857 137.193 145.662 145.187C146.262 146.448 146.668 147.932 146.868 149.598C147.012 150.793 146.887 152.684 146.564 154.197Z" fill="#4B4022"/>
<path d="M206.704 73.0801C206.439 70.8738 205.882 68.8669 205.048 67.1145C198.771 53.9284 179.672 55.0616 167.2 57.4266C165.352 52.9532 161.773 49.3699 157.3 47.5203L160.248 42.8388C160.985 41.6685 160.633 40.1225 159.463 39.3857C158.293 38.6483 156.747 39.0003 156.01 40.1703L152.191 46.2361C151.59 46.176 150.981 46.1446 150.365 46.1446C149.749 46.1446 149.14 46.1763 148.539 46.2361L144.72 40.1703C143.983 39.0003 142.438 38.649 141.267 39.3857C140.097 40.1225 139.746 41.6685 140.482 42.8388L143.43 47.5203C138.957 49.3702 135.378 52.9535 133.53 57.4273C121.059 55.0616 101.96 53.9271 95.6828 67.1148C94.8488 68.8672 94.2914 70.8745 94.0262 73.0804C93.8178 74.8161 93.9661 77.2656 94.4039 79.3196C94.4998 79.7705 94.5967 80.221 94.6942 80.6716C95.1384 82.7262 96.0087 85.0207 96.9112 86.517C98.0581 88.4197 99.3903 90.0211 100.87 91.2769C104.325 94.2073 108.335 95.3746 112.54 95.3746C117.316 95.3746 122.337 93.8643 127.063 91.7201V101.708C127.063 103.185 127.208 104.629 127.472 106.031C127.477 106.059 127.481 106.088 127.487 106.116C129.399 116.061 137.652 123.777 147.86 124.873L147.861 131.576C147.861 132.959 148.982 134.08 150.365 134.08C151.747 134.08 152.868 132.959 152.868 131.576L152.868 124.873C163.072 123.777 171.321 116.069 173.239 106.131C173.249 106.083 173.257 106.036 173.265 105.988C173.524 104.599 173.665 103.17 173.665 101.708V91.7194C178.392 93.8639 183.414 95.3742 188.19 95.3742C192.393 95.3742 196.406 94.2059 199.86 91.2766C201.34 90.0211 202.672 88.4197 203.819 86.5166C204.722 85.02 205.592 82.7256 206.036 80.6712C206.133 80.221 206.23 79.7708 206.326 79.3203C206.764 77.2646 206.913 74.8151 206.704 73.0801ZM150.365 51.152C157.643 51.152 163.564 57.0729 163.564 64.3511C163.564 71.6293 157.644 77.5501 150.365 77.5501C143.087 77.5501 137.166 71.6293 137.166 64.3511C137.166 57.0729 143.088 51.152 150.365 51.152ZM104.11 87.4581C103.045 86.5547 102.066 85.3681 101.2 83.9313C100.578 82.9006 99.9157 81.1248 99.5887 79.6132C99.4925 79.168 99.397 78.7231 99.3018 78.2766C98.9795 76.7643 98.8546 74.8729 98.9979 73.6776C99.198 72.012 99.6041 70.5278 100.204 69.267C103.34 62.6792 111.522 60.9645 119.19 60.9645C120.805 60.9645 122.398 61.0406 123.914 61.1632C126.842 61.3997 129.694 61.8235 132.274 62.3051C132.198 62.9767 132.159 63.6594 132.159 64.3511C132.159 70.1146 134.853 75.2573 139.046 78.5958C136.305 80.6485 132.835 83.0328 129.057 85.1149C121.394 89.3375 110.846 93.1723 104.11 87.4581ZM168.658 101.708H168.658C168.658 102.172 168.635 102.63 168.601 103.086H151.345C149.962 103.086 148.841 104.206 148.841 105.589C148.841 106.972 149.962 108.093 151.345 108.093H167.506C164.909 115.041 158.206 120.001 150.365 120.001C142.523 120.001 135.82 115.041 133.224 108.093H137.324C138.706 108.093 139.827 106.972 139.827 105.589C139.827 104.206 138.707 103.086 137.324 103.086H132.129C132.095 102.63 132.072 102.172 132.072 101.708V93.4986H148.006C149.389 93.4986 150.51 92.3777 150.51 90.9947C150.51 89.6117 149.389 88.4908 148.006 88.4908H133.264C137.412 86.0651 141.07 83.4206 143.764 81.3131C145.812 82.113 148.038 82.5572 150.366 82.5572C152.694 82.5572 154.919 82.1134 156.967 81.3131C159.661 83.4206 163.319 86.0651 167.467 88.4905H160.526C159.143 88.4905 158.022 89.6113 158.022 90.9944C158.022 92.3774 159.143 93.4982 160.526 93.4982H168.658V101.708ZM201.429 78.2766C201.334 78.7221 201.238 79.1676 201.142 79.6128C200.815 81.1244 200.152 82.9006 199.531 83.9313C198.665 85.3677 197.686 86.5547 196.621 87.4578C189.885 93.1719 179.337 89.3378 171.673 85.1146C167.895 83.0325 164.426 80.6485 161.684 78.5955C165.877 75.257 168.572 70.1143 168.572 64.3507C168.572 63.6587 168.532 62.9761 168.457 62.3041C171.036 61.8228 173.89 61.3993 176.816 61.1629C185.538 60.4578 196.73 61.2915 200.526 69.2667C201.127 70.5275 201.532 72.0113 201.733 73.6773C201.876 74.8723 201.751 76.7636 201.429 78.2766Z" fill="#4B4022"/>
</svg>
