<svg width="258" height="250" viewBox="0 0 258 250" fill="none" xmlns="http://www.w3.org/2000/svg">
<path d="M256.223 125.634L191.671 232.586L63.9622 231.756L0.805106 123.976L65.3567 17.0242L193.065 17.8536L256.223 125.634Z" fill="#FDBB30"/>
<path d="M211.262 75.9474C212.533 75.9471 213.564 74.9162 213.564 73.6445C213.564 72.3729 212.533 71.342 211.262 71.342C206.957 70.9676 189.431 73.4878 168.92 63.3524C167.776 62.9376 148.975 52 121.799 52H65.7388C64.4668 52 63.4362 53.0309 63.4362 54.3026C63.4362 55.5742 64.4668 56.6051 65.7388 56.6051C68.0051 56.6051 120.929 56.6042 122.018 56.6067V88.0655H96.4062C88.7245 88.0655 82.4703 94.3167 82.4703 102.001C82.4703 105.585 83.8306 108.857 86.0626 111.329H85.307C77.6223 111.329 71.3711 117.583 71.3711 125.265C71.3711 128.943 72.8019 132.29 75.1382 134.783C68.5249 135.866 63.4619 141.62 63.4619 148.534C63.4619 155.448 68.5218 161.202 75.1351 162.286C72.8016 164.779 71.3711 168.125 71.3711 171.801C71.3711 179.485 77.6223 185.736 85.307 185.736H86.0623C83.8333 188.208 82.47 191.481 82.47 195.064C82.47 202.749 88.7242 209 96.4059 209H103.787C105.058 209 106.089 207.971 106.089 206.697C106.089 205.426 105.058 204.395 103.787 204.395H96.4059C91.2632 204.395 87.0754 200.21 87.0754 195.064C87.0754 189.946 91.2203 185.78 96.3292 185.737H149.758C154.867 185.78 159.011 189.946 159.011 195.064C159.011 200.21 154.827 204.395 149.681 204.395H112.998C111.727 204.395 110.695 205.426 110.695 206.697C110.695 207.971 111.727 209 112.998 209H149.681C157.366 209 163.617 202.749 163.617 195.064C163.617 191.481 162.257 188.208 160.025 185.736H160.78C168.465 185.736 174.716 179.485 174.716 171.801C174.716 168.125 173.285 164.779 170.952 162.286C177.565 161.202 182.628 155.448 182.628 148.534C182.628 141.62 177.565 135.866 170.949 134.783C173.285 132.29 174.716 128.943 174.716 125.265C174.716 117.583 168.465 111.329 160.78 111.329H160.025C162.257 108.857 163.617 105.585 163.617 102.001C163.617 94.3167 157.366 88.0655 149.681 88.0655H142.3C141.029 88.0655 139.998 89.0971 139.998 90.3681C139.998 91.6391 141.029 92.6707 142.3 92.6707H149.681C154.827 92.6707 159.011 96.8554 159.011 102.001C159.011 107.101 154.897 111.255 149.816 111.329H96.274C91.1896 111.255 87.0754 107.101 87.0754 102.001C87.0754 96.8554 91.2632 92.6707 96.4059 92.6707H133.089C134.36 92.6707 135.392 91.6391 135.392 90.3681C135.392 89.0971 134.36 88.0655 133.089 88.0655H126.623V56.7278C140.098 57.3969 153.464 60.8521 165.553 66.8255C166.451 67.2164 173.037 70.9035 183.125 73.4449C184.496 77.2558 190.442 90.1443 209.333 94.7623C210.571 95.0643 211.815 94.3054 212.116 93.0721C212.418 91.8369 211.662 90.5904 210.426 90.2887C201.215 88.0373 193.154 82.9545 188.72 74.6537C193.474 75.5068 198.301 75.9471 203.124 75.9471L211.262 75.9474ZM68.0677 148.534C68.0677 143.389 72.2524 139.204 77.3981 139.204H98.1961C96.0158 144.892 95.8389 151.596 98.193 157.865H77.3981C72.2524 157.865 68.0677 153.677 68.0677 148.534ZM160.78 181.131H149.758C149.733 181.131 149.706 181.128 149.681 181.128H96.4062C96.3817 181.128 96.3571 181.131 96.3295 181.131H85.3073C80.1616 181.131 75.9769 176.947 75.9769 171.801C75.9769 166.655 80.1616 162.47 85.3073 162.47H100.456C110.522 178.95 134.984 179.587 145.632 162.483C145.632 162.48 145.635 162.476 145.638 162.47H160.78C165.926 162.47 170.111 166.655 170.111 171.801C170.111 176.947 165.926 181.131 160.78 181.131ZM178.023 148.534C178.023 153.677 173.835 157.865 168.689 157.865H147.895C150.104 151.992 150.223 145.473 147.895 139.204H168.689C173.835 139.204 178.023 143.389 178.023 148.534ZM149.681 115.937C149.727 115.937 149.77 115.934 149.817 115.934H160.78C165.926 115.934 170.111 120.122 170.111 125.265C170.111 130.41 165.926 134.595 160.78 134.595H145.635C143.947 131.861 141.67 129.363 139.23 127.491C138.223 126.717 136.777 126.904 136.004 127.914C135.227 128.921 135.417 130.368 136.424 131.141C142.884 136.087 146.025 144.215 144.69 152.222C142.153 168.223 123.033 175.928 109.953 166.182C109.775 166.123 105.011 162.656 102.722 156.818C102.719 156.815 102.719 156.815 102.716 156.812C95.815 139.707 111.558 122.453 129.022 127.417C130.244 127.764 131.518 127.055 131.865 125.83C132.215 124.608 131.503 123.334 130.281 122.987C125.991 121.768 121.429 121.657 117.054 122.671C105.771 125.282 100.456 134.443 100.456 134.595H85.307C80.1613 134.595 75.9766 130.411 75.9766 125.265C75.9766 120.122 80.1613 115.935 85.307 115.935C99.702 115.935 146.359 115.937 149.681 115.937Z" fill="#4B4022"/>
</svg>
