<svg width="258" height="250" viewBox="0 0 258 250" fill="none" xmlns="http://www.w3.org/2000/svg">
<path d="M256.223 125.634L191.671 232.586L63.9623 231.756L0.805137 123.976L65.3567 17.0242L193.065 17.8536L256.223 125.634Z" fill="#FDBB30"/>
<path d="M182.631 94.2725L194.748 73.2864C195.133 72.62 195.133 71.8029 194.748 71.1364L182.007 49.075C181.622 48.4086 180.913 48 180.145 48H154.672C153.904 48 153.192 48.4086 152.81 49.075L140.693 70.061H117.305L105.187 49.075C104.803 48.4086 104.093 48 103.325 48H77.8526C77.085 48 76.3732 48.4086 75.9907 49.075L63.2519 71.136C62.8668 71.8024 62.8668 72.6196 63.2519 73.286L67.698 80.9853C67.6959 81.0239 67.6766 81.0542 67.6766 81.0928V108.892C67.6766 110.079 68.6378 111.042 69.8266 111.042C71.0154 111.042 71.9766 110.079 71.9766 108.892V88.3965L75.9907 95.3496C76.3753 96.016 77.085 96.4246 77.8526 96.4246H88.4392V118.249C88.4392 119.436 89.4004 120.399 90.5892 120.399C91.778 120.399 92.7392 119.436 92.7392 118.249V96.4225H101.926L113.422 116.333L101.563 136.87H77.8526C77.085 136.87 76.3732 137.279 75.9907 137.945L63.2519 160.006C62.8668 160.673 62.8668 161.492 63.2519 162.156L75.9907 184.217C76.3753 184.884 77.085 185.292 77.8526 185.292H83.8016V203.774C83.8016 204.961 84.7628 205.924 85.9516 205.924C87.1404 205.924 88.1016 204.961 88.1016 203.774V185.292H99.7053V217.85C99.7053 219.036 100.667 220 101.855 220C103.044 220 104.005 219.036 104.005 217.85V185.17C104.495 185.006 104.921 184.68 105.188 184.219L117.666 162.608H132.017C131.975 162.777 131.914 162.939 131.914 163.122V189.81C131.914 190.996 132.875 191.96 134.064 191.96C135.253 191.96 136.214 190.996 136.214 189.81V163.119C136.214 162.937 136.154 162.773 136.111 162.606H141.383C142.15 162.606 142.862 162.197 143.245 161.531L155.36 140.544H168.457V189.81C168.457 190.996 169.419 191.96 170.607 191.96C171.796 191.96 172.757 190.996 172.757 189.81V140.544H180.147C180.914 140.544 181.626 140.136 182.009 139.469L194.748 117.408C195.133 116.742 195.133 115.925 194.748 115.258L182.631 94.2725ZM155.915 52.3H178.905L190.403 72.211L178.905 92.122H155.915L144.417 72.211L155.915 52.3ZM79.093 92.1225L67.5947 72.211L79.093 52.3H102.083L113.501 72.0737L101.926 92.1225H79.093ZM105.73 94.4098L117.305 74.361H140.14L151.637 94.272L140.14 114.183H117.146L105.73 94.4098ZM102.083 180.993H79.093L67.5947 161.082L79.093 141.171H102.083L113.581 161.082L102.083 180.993ZM140.138 158.306H117.146L105.648 138.395L117.146 118.484H140.138L151.634 138.395L140.138 158.306ZM178.905 136.244H155.915L144.417 116.333L155.915 96.4225H178.905L190.403 116.333L178.905 136.244Z" fill="#4B4022"/>
</svg>
