<svg width="258" height="250" viewBox="0 0 258 250" fill="none" xmlns="http://www.w3.org/2000/svg">
<path d="M256.223 125.634L191.671 232.586L63.9623 231.756L0.805137 123.976L65.3567 17.0242L193.065 17.8536L256.223 125.634Z" fill="#FDBB30"/>
<g clip-path="url(#clip0_11_421)">
<path d="M201.633 187.623L155.978 142.421C155.111 141.562 153.721 141.579 152.875 142.458C152.028 143.336 152.044 144.744 152.911 145.602L198.566 190.804C199.209 191.441 199.57 192.294 199.58 193.206C199.59 194.118 199.25 194.979 198.621 195.631C197.992 196.283 197.15 196.648 196.251 196.659C195.359 196.669 194.501 196.324 193.858 195.687L134.031 136.453L138.739 131.57L146.222 138.979C146.649 139.402 147.203 139.612 147.755 139.612C148.326 139.612 148.895 139.389 149.325 138.943C150.172 138.064 150.156 136.657 149.289 135.798L141.806 128.389L142.153 128.03C145.629 124.425 145.562 118.627 142.005 115.104C140.793 113.905 139.305 113.103 137.721 112.734C139.267 109.109 138.553 104.731 135.604 101.81C134.315 100.535 132.724 99.6763 131.028 99.2775C132.95 95.5406 132.334 90.8118 129.21 87.7185C127.64 86.164 125.658 85.2292 123.576 84.9834C124.382 81.5447 123.415 77.8015 120.771 75.1835C118.127 72.5655 114.412 71.6724 111.038 72.5699C110.747 70.466 109.779 68.4807 108.209 66.9259C106.386 65.1212 103.988 64.1318 101.444 64.1318C101.406 64.1318 101.367 64.1318 101.329 64.1324C99.7037 64.1513 98.1445 64.5727 96.762 65.348C96.3289 63.6411 95.4456 62.0501 94.1576 60.7749C91.208 57.8545 86.8727 57.2327 83.3318 58.8836C82.9315 57.2876 82.1059 55.7986 80.894 54.599C77.3378 51.0761 71.6153 51.1431 68.1391 54.7484L63.644 59.4104C62.797 60.2887 62.8131 61.6967 63.68 62.555C64.547 63.4134 65.9368 63.3965 66.7829 62.5183L71.278 57.8562C73.0631 56.0052 76.0013 55.9712 77.8273 57.7794C79.0457 58.9853 79.5021 60.7619 79.0477 62.4041L64.4094 77.5859C62.7993 78.0846 61.0368 77.663 59.8184 76.4566C57.9921 74.6483 57.9578 71.6712 59.7423 69.8202L60.2471 69.2969C61.0941 68.4187 61.078 67.0107 60.2111 66.1524C59.3438 65.2937 57.954 65.3106 57.1082 66.1891L56.6034 66.7124C54.9196 68.4588 54.0076 70.7649 54.0357 73.2062C54.0638 75.6475 55.0281 77.9316 56.7515 79.6377C57.9616 80.8361 59.4483 81.6378 61.0303 82.0069C60.4943 83.2581 60.2204 84.6214 60.2365 86.0262C60.2667 88.6471 61.3021 91.0994 63.1525 92.9314C64.441 94.2075 66.0327 95.0659 67.728 95.4646C65.9514 98.9191 66.3487 103.218 68.8858 106.292V139.162C68.8858 143.152 72.089 146.398 76.0267 146.398C79.9644 146.398 83.1677 143.152 83.1677 139.162V122.318C84.6695 122.615 86.2267 122.569 87.718 122.173C87.965 123.961 88.7067 125.661 89.8864 127.086V165.599C89.8864 169.972 93.3969 173.529 97.712 173.529C102.027 173.529 105.538 169.971 105.538 165.599V153.023C105.538 151.795 104.556 150.799 103.344 150.799C102.132 150.799 101.149 151.795 101.149 153.023V165.599C101.149 167.519 99.6071 169.082 97.712 169.082C95.8169 169.082 94.2753 167.519 94.2753 165.599V130.115C95.2788 130.449 96.3404 130.62 97.427 130.61C98.7296 130.595 99.9881 130.317 101.149 129.81V143.546C101.149 144.774 102.132 145.77 103.344 145.77C104.556 145.77 105.538 144.774 105.538 143.546V134.784C107.241 136.088 109.307 136.781 111.478 136.761C112.865 136.745 114.203 136.436 115.425 135.864C115.826 137.458 116.652 138.945 117.862 140.143C119.56 141.824 121.794 142.746 124.163 142.746C124.198 142.746 124.234 142.746 124.27 142.745C126.679 142.717 128.933 141.74 130.617 139.994L130.964 139.634L190.79 198.868C192.297 200.36 194.254 201.103 196.21 201.103C198.227 201.103 200.243 200.313 201.76 198.739C204.749 195.639 204.692 190.653 201.633 187.623ZM125.562 90.4009L124.149 91.108C121.874 92.2471 119.497 93.1342 117.062 93.769L121.141 89.5384C122.682 89.1411 124.292 89.4577 125.562 90.4009ZM97.6541 70.1944C98.6427 69.1692 99.9658 68.5954 101.38 68.5788C101.401 68.5788 101.422 68.5785 101.443 68.5785C102.834 68.5785 104.145 69.1196 105.142 70.1064C106.478 71.4287 107.014 73.3215 106.601 75.1417L103.184 78.6856C102.337 79.5638 102.353 80.9719 103.22 81.8302C103.647 82.2527 104.2 82.4632 104.753 82.4632C105.323 82.4632 105.893 82.2394 106.323 81.7934L110.023 77.956C112.315 76.1153 115.602 76.2829 117.705 78.3642C119.807 80.4456 120.048 83.7704 118.286 86.1362L109.84 94.8951C106.373 95.0825 102.874 94.775 99.4573 93.9573C98.0927 93.6306 96.7143 93.3774 95.3289 93.1956L100.02 88.3308C100.867 87.4523 100.851 86.0445 99.9837 85.1862C99.1164 84.3273 97.7266 84.3445 96.8808 85.2227L89.5207 92.8558C83.7865 92.9297 78.0784 94.209 72.8369 96.6527L71.855 97.1105C72.0463 96.808 97.6541 70.1944 97.6541 70.1944ZM77.6143 105.204C75.8283 105.665 73.9487 105.164 72.6134 103.843C72.1183 103.352 71.7423 102.786 71.4781 102.181L74.6711 100.692C77.9189 99.1785 81.3671 98.1648 84.8849 97.6634L77.6143 105.204ZM66.2194 89.7507C65.2076 88.7488 64.6415 87.4081 64.6251 85.9749C64.6087 84.5419 65.1438 83.1881 66.1325 82.1629L83.603 64.044C85.6436 61.928 89.0025 61.8882 91.0913 63.9562C92.4583 65.3097 92.9899 67.3149 92.5063 69.1706L71.3968 91.0635C69.5777 91.596 67.5864 91.1042 66.2194 89.7507ZM78.7785 139.162C78.7785 140.7 77.5438 141.951 76.0264 141.951C74.5091 141.951 73.2743 140.7 73.2743 139.162V109.323C73.8943 109.531 74.531 109.682 75.1803 109.759C74.3736 113.198 75.3406 116.941 77.9847 119.559C78.239 119.81 78.5058 120.041 78.7788 120.261V139.162H78.7785ZM81.0517 116.377C78.9494 114.296 78.708 110.971 80.4709 108.605L91.3456 97.3266C93.7313 97.412 96.1121 97.7257 98.4485 98.2852C100.796 98.847 103.178 99.1936 105.565 99.3294L88.733 116.786C86.4403 118.627 83.1542 118.459 81.0517 116.377ZM115.154 130.698C114.165 131.724 112.842 132.297 111.427 132.314C110.017 132.334 108.677 131.788 107.666 130.786C106.299 129.433 105.767 127.428 106.251 125.572L112.07 119.537C112.917 118.659 112.901 117.251 112.034 116.392C111.166 115.534 109.777 115.551 108.931 116.429L101.103 124.548C100.114 125.573 98.7911 126.146 97.3767 126.163C97.3559 126.163 97.3346 126.163 97.3135 126.163C95.9228 126.163 94.6114 125.622 93.6146 124.636C92.2795 123.314 91.7423 121.421 92.1557 119.601L111.823 99.2034C116.756 98.7231 121.6 97.345 126.093 95.0961L127.712 94.2858C127.837 95.7855 127.347 97.3293 126.23 98.4877C126.23 98.4877 124.591 100.188 124.591 100.188L114.919 110.22C114.072 111.098 114.088 112.506 114.955 113.364C115.382 113.787 115.935 113.997 116.488 113.997C117.058 113.997 117.628 113.773 118.058 113.327L127.36 103.679C129.18 103.146 131.171 103.638 132.538 104.992C134.626 107.06 134.665 110.464 132.625 112.58L115.154 130.698ZM124.219 138.298C124.201 138.299 124.182 138.299 124.164 138.299C122.948 138.299 121.801 137.826 120.929 136.962C119.711 135.756 119.254 133.98 119.709 132.338L134.347 117.156C135.956 116.658 137.72 117.079 138.938 118.285C140.765 120.094 140.799 123.071 139.014 124.921L127.478 136.886C126.613 137.782 125.456 138.284 124.219 138.298Z" fill="#4B4022"/>
<path d="M97.712 181.816C93.3969 181.816 89.8861 185.373 89.8861 189.746V196.07C89.8861 200.443 93.3969 204 97.712 204C102.027 204 105.538 200.442 105.538 196.07V189.746C105.538 185.373 102.027 181.816 97.712 181.816ZM101.149 196.07C101.149 197.99 99.6071 199.553 97.7123 199.553C95.8169 199.553 94.2752 197.99 94.2752 196.07V189.746C94.2752 187.825 95.8172 186.263 97.7123 186.263C99.6074 186.263 101.149 187.825 101.149 189.746V196.07Z" fill="#4B4022"/>
</g>
<defs>
<clipPath id="clip0_11_421">
<rect width="150" height="152" fill="white" transform="translate(54 52)"/>
</clipPath>
</defs>
</svg>
