<svg width="83" height="69" viewBox="0 0 83 69" fill="none" xmlns="http://www.w3.org/2000/svg">
<path fill-rule="evenodd" clip-rule="evenodd" d="M10.375 31.4056C10.375 20.6386 10.375 15.2552 14.4267 11.9103C18.4784 8.56543 24.9995 8.56543 38.0417 8.56543H44.9583C58.0004 8.56543 64.5218 8.56543 68.5732 11.9103C72.625 15.2552 72.625 20.6386 72.625 31.4056V37.1156C72.625 47.8824 72.625 53.2662 68.5732 56.6108C64.5218 59.9557 58.0004 59.9557 44.9583 59.9557H38.0417C24.9995 59.9557 18.4784 59.9557 14.4267 56.6108C10.375 53.2662 10.375 47.8824 10.375 37.1156V31.4056ZM62.25 21.413C62.25 23.7782 59.9274 25.6955 57.0625 25.6955C54.1976 25.6955 51.875 23.7782 51.875 21.413C51.875 19.0478 54.1976 17.1305 57.0625 17.1305C59.9274 17.1305 62.25 19.0478 62.25 21.413ZM48.4167 37.1156C48.4167 40.2693 45.3201 42.8256 41.5 42.8256C37.6799 42.8256 34.5833 40.2693 34.5833 37.1156C34.5833 33.962 37.6799 31.4056 41.5 31.4056C45.3201 31.4056 48.4167 33.962 48.4167 37.1156ZM55.3333 37.1156C55.3333 43.4226 49.1398 48.5357 41.5 48.5357C33.8601 48.5357 27.6667 43.4226 27.6667 37.1156C27.6667 30.8086 33.8601 25.6955 41.5 25.6955C49.1398 25.6955 55.3333 30.8086 55.3333 37.1156Z" fill="#FDBB30"/>
</svg>
