<svg width="92" height="78" viewBox="0 0 92 78" fill="none" xmlns="http://www.w3.org/2000/svg">
<path d="M46 13C39.9349 13 34.0056 14.5249 28.9625 17.3818C23.9194 20.2387 19.9888 24.2993 17.6677 29.0502C15.3466 33.801 14.7393 39.0289 15.9226 44.0723C17.1059 49.1159 20.0266 53.7485 24.3154 57.3849C28.6042 61.021 34.0685 63.4972 40.0173 64.5005C45.9659 65.5037 52.1322 64.9886 57.7358 63.0207C63.3393 61.0529 68.1287 57.7206 71.4986 53.4449C74.8681 49.1692 76.6667 44.1425 76.6667 39C76.6667 32.1044 73.4356 25.4912 67.6848 20.6152C61.9336 15.7393 54.1332 13 46 13ZM61.065 30.81L56.0433 50.9275C55.66 52.3575 54.6633 52.6825 53.245 52.0325L45.5783 47.2225L41.745 50.245C41.5645 50.4449 41.3325 50.6074 41.0669 50.7201C40.8012 50.8326 40.5088 50.8924 40.2117 50.895L40.7483 44.395L54.9317 33.5075C55.5833 33.0525 54.9317 32.7925 54.0117 33.2475L36.6083 42.51L28.9417 40.495C27.2933 40.0725 27.255 39.0975 29.2867 38.4475L58.8417 28.6975C60.2983 28.34 61.525 29.055 61.065 30.81Z" fill="#FDBB30"/>
</svg>
